<svg width="234" height="48" viewBox="0 0 234 48" fill="none" xmlns="http://www.w3.org/2000/svg">
<path d="M69.4917 35.4148C73.425 35.4148 76.4114 32.9728 76.4114 29.4737C76.4114 26.3026 74.3719 24.6989 71.1305 23.8241L69.4188 23.3138C67.8528 22.9129 67.6343 22.2933 67.6343 21.7465C67.6343 20.9082 68.5812 20.5073 69.4552 20.5073C70.6571 20.5073 71.7133 21.054 72.5509 22.111L75.8287 19.4502C74.4083 17.4091 72.3324 16.3885 69.5281 16.3885C65.6312 16.3885 62.7905 18.539 62.6812 21.8923C62.572 24.6989 64.3565 26.8494 67.7071 27.7241L69.0546 28.0522C71.0577 28.5989 71.4947 29.0363 71.4947 29.8017C71.4947 30.7129 70.5114 31.1139 69.4917 31.1139C67.7435 31.1139 66.2503 30.3485 65.4127 28.9998L61.9893 31.9158C63.5553 34.2849 66.2868 35.4148 69.4917 35.4148Z" fill="white"/>
<path d="M87.6387 35.2326C89.0591 35.2326 89.9696 35.0868 90.8072 34.8317V30.4214C90.2245 30.64 89.5325 30.7494 88.7677 30.7494C86.5826 30.7494 85.6721 29.8746 85.6721 27.6512V21.1633H90.0871L91.1142 19.0875L92.2546 16.7895H85.6721V11.7231H80.6826V16.7895H77.0043V21.1633H80.6826V28.6354C80.6826 33.1186 83.7783 35.2326 87.6387 35.2326Z" fill="white"/>
<path d="M101.578 35.4148C106.859 35.4148 111.157 31.2597 111.157 25.9017C111.157 20.5802 106.859 16.3885 101.578 16.3885C96.2976 16.3885 92.0001 20.5802 92.0001 25.9017C92.0001 31.2597 96.2976 35.4148 101.578 35.4148ZM101.578 30.7494C98.9562 30.7494 97.026 28.7083 97.026 25.9017C97.026 23.0951 98.9562 21.054 101.578 21.054C104.164 21.054 106.094 23.0951 106.094 25.9017C106.094 28.7083 104.164 30.7494 101.578 30.7494Z" fill="white"/>
<path d="M113.694 35.0139H118.683V26.3026C118.683 23.2774 120.249 21.4549 122.616 21.4549C123.454 21.4549 124.11 21.6007 124.874 21.8559V16.7895C124.255 16.6072 123.745 16.5708 123.199 16.5708C121.16 16.5708 119.302 17.9194 118.683 19.7054V16.7895H113.694V35.0139Z" fill="white"/>
<path d="M134.982 42.6317L146.418 16.7895H140.918L136.075 28.5989L131.194 16.7895H125.731L133.38 33.9933L129.556 42.6317H134.982Z" fill="white"/>
<path d="M157.646 35.2326C159.067 35.2326 159.977 35.0868 160.815 34.8317V30.4214C160.232 30.64 159.54 30.7494 158.775 30.7494C156.59 30.7494 155.68 29.8746 155.68 27.6512V21.1633H160.113L161.469 18.9764L162.826 16.7895H155.68V11.7231H150.69V16.7895H148.242L147.318 18.9764L146.393 21.1633H150.69V28.6354C150.69 33.1186 153.786 35.2326 157.646 35.2326Z" fill="white"/>
<path d="M172.353 35.4148C176.177 35.4148 179.091 33.8111 180.802 31.3326L177.088 28.5625C176.25 29.8382 174.684 30.8587 172.389 30.8587C169.986 30.8587 167.837 29.5101 167.546 27.0681H181.166C181.276 26.3026 181.239 25.7923 181.239 25.355C181.239 19.4138 177.051 16.3885 172.28 16.3885C166.744 16.3885 162.702 20.5073 162.702 25.9017C162.702 31.6606 166.926 35.4148 172.353 35.4148ZM167.728 23.6783C168.201 21.4549 170.277 20.5073 172.134 20.5073C173.992 20.5073 175.813 21.4914 176.25 23.6783H167.728Z" fill="white"/>
<path d="M184.184 35.0139H189.173V7.67725H184.184V35.0139Z" fill="white"/>
<path d="M192.7 35.0139H197.689V7.67725H192.7V35.0139Z" fill="white"/>
<path d="M210.219 35.4148C214.043 35.4148 216.956 33.8111 218.668 31.3326L214.953 28.5625C214.116 29.8382 212.55 30.8587 210.255 30.8587C207.852 30.8587 205.703 29.5101 205.411 27.0681H219.032C219.142 26.3026 219.105 25.7923 219.105 25.355C219.105 19.4138 214.917 16.3885 210.146 16.3885C204.61 16.3885 200.568 20.5073 200.568 25.9017C200.568 31.6606 204.792 35.4148 210.219 35.4148ZM205.594 23.6783C206.067 21.4549 208.143 20.5073 210 20.5073C211.858 20.5073 213.679 21.4914 214.116 23.6783H205.594Z" fill="white"/>
<path d="M221.819 35.0139H226.808V26.3026C226.808 23.2774 228.374 21.4549 230.742 21.4549C231.579 21.4549 232.235 21.6007 233 21.8559V16.7895C232.38 16.6072 231.871 16.5708 231.324 16.5708C229.285 16.5708 227.427 17.9194 226.808 19.7054V16.7895H221.819V35.0139Z" fill="white"/>
<path d="M8.69531 15.8L22.0844 20.0281C23.0056 20.319 23.994 20.319 24.9151 20.0281L38.3042 15.8C37.5328 8.30455 31.199 2.45837 23.4998 2.45837C15.8005 2.45837 9.46672 8.30455 8.69531 15.8Z" fill="#F3C3AF"/>
<path d="M25.8648 24.4262C24.3259 24.9135 22.6741 24.9135 21.1352 24.4262L4.07926 19.0251C2.05927 18.3855 0 19.8934 0 22.0123V27.4603C0 28.4828 0.498863 29.4409 1.33649 30.0272L21.7032 44.2839C22.782 45.0391 24.218 45.0391 25.2969 44.2839L45.6635 30.0272C46.5011 29.4409 47 28.4828 47 27.4603V22.0123C47 19.8934 44.9407 18.3855 42.9207 19.0251L25.8648 24.4262Z" fill="#1C62EB"/>
</svg>
