<svg width="234" height="48" viewBox="0 0 234 48" fill="none" xmlns="http://www.w3.org/2000/svg">
<path d="M69.4921 35.4148C73.4254 35.4148 76.4118 32.9728 76.4118 29.4737C76.4118 26.3026 74.3723 24.6989 71.131 23.8241L69.4193 23.3138C67.8532 22.9129 67.6347 22.2932 67.6347 21.7465C67.6347 20.9082 68.5816 20.5073 69.4557 20.5073C70.6575 20.5073 71.7137 21.054 72.5513 22.111L75.8291 19.4502C74.4087 17.4091 72.3328 16.3885 69.5285 16.3885C65.6316 16.3885 62.7909 18.539 62.6817 21.8923C62.5724 24.6989 64.3569 26.8494 67.7075 27.7241L69.0551 28.0522C71.0581 28.5989 71.4952 29.0363 71.4952 29.8017C71.4952 30.7129 70.5118 31.1139 69.4921 31.1139C67.744 31.1139 66.2508 30.3485 65.4131 28.9998L61.9897 31.9158C63.5557 34.2849 66.2872 35.4148 69.4921 35.4148Z" fill="#171A25"/>
<path d="M87.6392 35.2326C89.0595 35.2326 89.97 35.0868 90.8077 34.8317V30.4214C90.2249 30.64 89.533 30.7494 88.7682 30.7494C86.583 30.7494 85.6725 29.8746 85.6725 27.6512V21.1633H90.0875L91.1146 19.0875L92.2551 16.7895H85.6725V11.7231H80.6831V16.7895H77.0047V21.1633H80.6831V28.6354C80.6831 33.1186 83.7787 35.2326 87.6392 35.2326Z" fill="#171A25"/>
<path d="M101.579 35.4148C106.86 35.4148 111.157 31.2597 111.157 25.9017C111.157 20.5802 106.86 16.3885 101.579 16.3885C96.2981 16.3885 92.0006 20.5802 92.0006 25.9017C92.0006 31.2597 96.2981 35.4148 101.579 35.4148ZM101.579 30.7494C98.9567 30.7494 97.0264 28.7083 97.0264 25.9017C97.0264 23.0951 98.9567 21.054 101.579 21.054C104.165 21.054 106.095 23.0951 106.095 25.9017C106.095 28.7083 104.165 30.7494 101.579 30.7494Z" fill="#171A25"/>
<path d="M113.694 35.0139H118.684V26.3026C118.684 23.2774 120.25 21.4549 122.617 21.4549C123.455 21.4549 124.11 21.6007 124.875 21.8559V16.7895C124.256 16.6072 123.746 16.5708 123.2 16.5708C121.16 16.5708 119.303 17.9194 118.684 19.7054V16.7895H113.694V35.0139Z" fill="#171A25"/>
<path d="M134.982 42.6317L146.418 16.7895H140.919L136.075 28.5989L131.195 16.7895H125.732L133.38 33.9933L129.556 42.6317H134.982Z" fill="#171A25"/>
<path d="M157.647 35.2326C159.067 35.2326 159.978 35.0868 160.815 34.8317V30.4214C160.232 30.64 159.541 30.7494 158.776 30.7494C156.591 30.7494 155.68 29.8746 155.68 27.6512V21.1633H160.113L161.47 18.9764L162.826 16.7895H155.68V11.7231H150.691V16.7895H148.243L147.318 18.9764L146.393 21.1633H150.691V28.6354C150.691 33.1186 153.786 35.2326 157.647 35.2326Z" fill="#171A25"/>
<path d="M172.353 35.4148C176.177 35.4148 179.091 33.8111 180.803 31.3326L177.088 28.5625C176.25 29.8382 174.684 30.8587 172.39 30.8587C169.986 30.8587 167.837 29.5101 167.546 27.0681H181.167C181.276 26.3026 181.24 25.7923 181.24 25.355C181.24 19.4138 177.052 16.3885 172.281 16.3885C166.745 16.3885 162.702 20.5073 162.702 25.9017C162.702 31.6606 166.927 35.4148 172.353 35.4148ZM167.728 23.6783C168.202 21.4549 170.278 20.5073 172.135 20.5073C173.992 20.5073 175.813 21.4914 176.25 23.6783H167.728Z" fill="#171A25"/>
<path d="M184.184 35.0139H189.174V7.67725H184.184V35.0139Z" fill="#171A25"/>
<path d="M192.7 35.0139H197.69V7.67725H192.7V35.0139Z" fill="#171A25"/>
<path d="M210.219 35.4148C214.043 35.4148 216.957 33.8111 218.669 31.3326L214.954 28.5625C214.116 29.8382 212.55 30.8587 210.256 30.8587C207.852 30.8587 205.703 29.5101 205.412 27.0681H219.033C219.142 26.3026 219.106 25.7923 219.106 25.355C219.106 19.4138 214.917 16.3885 210.146 16.3885C204.611 16.3885 200.568 20.5073 200.568 25.9017C200.568 31.6606 204.793 35.4148 210.219 35.4148ZM205.594 23.6783C206.067 21.4549 208.143 20.5073 210.001 20.5073C211.858 20.5073 213.679 21.4914 214.116 23.6783H205.594Z" fill="#171A25"/>
<path d="M221.819 35.0139H226.809V26.3026C226.809 23.2774 228.375 21.4549 230.742 21.4549C231.58 21.4549 232.235 21.6007 233 21.8559V16.7895C232.381 16.6072 231.871 16.5708 231.325 16.5708C229.285 16.5708 227.428 17.9194 226.809 19.7054V16.7895H221.819V35.0139Z" fill="#171A25"/>
<path d="M8.69543 15.8L22.0846 20.0281C23.0057 20.319 23.9941 20.319 24.9152 20.0281L38.3043 15.8C37.5329 8.30455 31.1991 2.45837 23.4999 2.45837C15.8006 2.45837 9.46684 8.30455 8.69543 15.8Z" fill="#F3C3AF"/>
<path d="M25.8648 24.4262C24.3259 24.9135 22.6741 24.9135 21.1352 24.4262L4.07926 19.0251C2.05927 18.3855 0 19.8934 0 22.0123V27.4603C0 28.4828 0.498863 29.4409 1.33649 30.0272L21.7032 44.2839C22.782 45.0391 24.218 45.0391 25.2969 44.2839L45.6635 30.0272C46.5011 29.4409 47 28.4828 47 27.4603V22.0123C47 19.8934 44.9407 18.3855 42.9207 19.0251L25.8648 24.4262Z" fill="#1C62EB"/>
</svg>
